<svg xmlns="http://www.w3.org/2000/svg" viewBox="0 0 2411.21 2794"><defs><style>.cls-1,.cls-2{fill:#fff;}.cls-2,.cls-3{fill-rule:evenodd;}</style></defs><title>Asset 1</title><g id="Layer_2" data-name="Layer 2"><g id="Layer_1_1"><polygon class="cls-1" points="1204.57 359.16 271.83 29.96 271.83 2060.05 1204.57 1758.28 1204.57 359.16"/><polygon points="1182.18 358.14 2150.63 28.95 2150.63 2059.04 1182.18 1757.27 1182.18 358.14"/><polygon points="29.96 2415.43 1182.18 2031.38 1182.18 357.92 29.96 741.97 29.96 2415.43"/><polygon class="cls-1" points="1707.21 2440.71 1870.51 2709.37 1956.62 2459.8 1707.21 2440.71"/><path class="cls-1" d="M421.74,934.75c-6.12-6,8,49.11,27.58,68.94,34.77,35.08,61.93,39.6,76.39,40.18,32,1.28,71.49-8,94.94-17.8,22.69-9.68,62.45-30,77.5-59.59,3.19-6.33,11.9-17,6.43-43.22-4.15-20.2-17-27.27-32.69-26.15s-63.15,13.72-86.11,20.78-70.28,21.37-90.9,25.84S429,941.66,421.74,934.75Z"/><path class="cls-1" d="M1003.1,1593.67c-9.08-3.3-196.94-81.12-223.57-93.87-21.79-10.48-75.22-33.07-100.36-43.33C750,1347.29,794.68,1264.9,800.63,1252.35c11-23,86-169.62,87.71-178.65s3.83-43,2.18-51c-1.65-8.19-29.13,7.55-66.44,20.2s-108.39,58.79-135.82,64.58-115.51,39.07-160.53,54-130.18,40.93-165.21,50.39-65.7,10.21-85.32,16.16c0,0,2.61,27.48,7.82,35.72s23.71,28.44,45.29,34.08,57.3,3.4,73.57-.32S448.31,1280,452.09,1274s-2-24.93,4.46-30.62,92.23-25.67,124.6-35.45c32.37-10,156.28-52.63,173.08-50.45-5.32,17.65-105,215.07-137.09,274s-218.63,318-258.34,363.64c-30.14,34.71-103.18,123.53-128.48,143.57,6.38,1.76,51.61-2.12,59.85-7.22,51.35-31.63,136.88-138.1,164.42-170.53,81.86-96,153.78-196.84,210.81-283.38h.06c11.11,4.63,100.94,77.82,124.38,94s115.94,67.82,136,76.38,97.06,44.18,100.3,32.16S1012.19,1597.12,1003.1,1593.67Z"/><path class="cls-2" d="M569,2572a560.72,560.72,0,0,0,54,29c38,19,81,39,122,54a1343.56,1343.56,0,0,0,168,51c31,7,65,13,98,18,3,0,92,11,110,11h90c35-3,68-5,103-10,28-4,59-9,89-16,22-5,45-10,67-17,21-6,45-14,68-22,15-5,31-12,47-18,13-6,29-13,44-19,18-8,39-19,59-29,16-8,34-18,51-28,13-7,43-30,59-30,18,0,30,16,30,30,0,29-39,38-57,51-19,13-42,23-62,34a1141,1141,0,0,1-120,54c-51,19-107,37-157,49-19,4-38,9-57,12-10,2-114,18-143,18H1100c-35-3-72-7-107-12-31-5-64-11-95-18-24-5-50-12-73-19-40-11-79-25-117-40-69-26-141-60-209-105-12-8-13-16-13-25,0-15,11-29,29-29C531,2546,563,2569,569,2572Z"/><path class="cls-2" d="M1151,2009,61,2372V764L1151,401Zm61-1655V2034a34,34,0,0,1-7,15c-2,3-6,7-9,8-25,10-1151,388-1166,388-12,0-23-8-29-21,0-1-1-2-1-4V739c2-5,3-12,7-16,8-11,22-13,31-16,17-6,1126-378,1142-378C1190,329,1212,336,1212,354Z"/><path class="cls-2" d="M2120,2017l-907-282V380L2120,72ZM2181,32V2055c-1,23-17,33-32,33-13,0-107-32-123-37-126-39-253-78-378-117-28-9-57-18-84-27-24-7-50-15-74-23-107-33-216-66-323-102-4-1-14-15-14-18V351c2-5,4-11,9-15,8-9,351-123,486-168,36-13,487-168,501-168C2167,0,2181,13,2181,32Z"/><polygon class="cls-1" points="2411.21 2440.71 1199.5 2054.5 1204.57 373.2 2411.21 757.25 2411.21 2440.71"/><path class="cls-3" d="M1800.35,1124.55,1681.42,1412l218.65,66.28ZM1729,853.19l156.11,47.29,284.41,1025-160.35-48.65-57.61-210.43L1620.16,1566,1548.9,1737.4l-160.4-48.66Z"/></g></g></svg>